<svg width="192" height="54" viewBox="0 0 192 54" fill="none" xmlns="http://www.w3.org/2000/svg">
<path d="M0 0V53.9733C30.6667 50.3567 61.3333 46.74 92 43.1233V7.37172C61.3333 4.91364 30.6667 2.45682 0 0Z" fill="#0D3D42"/>
<path d="M20.5314 34.6081V15.9712H28.5925C31.9613 15.9712 34.9515 18.0619 36.0183 21.1641C37.085 24.2663 35.9881 27.6829 33.2948 29.6466L36.4196 34.6068H32.2733L30.0291 31.0417C29.5548 31.1272 29.073 31.1713 28.5899 31.17H24.0675V34.6055H20.5314V34.6081ZM24.0688 27.7383H28.5912C30.9436 27.7131 32.8356 25.8551 32.8356 23.5706C32.8356 21.2861 30.9424 19.4294 28.5912 19.4029H22.3026C23.2775 19.4042 24.0675 20.1716 24.0688 21.1188V27.737V27.7383Z" fill="white"/>
<path d="M43.5888 34.6081H40.0514V15.9712H48.1112C52.4349 15.9712 55.9396 19.374 55.9396 23.5719C55.9396 27.7697 52.4349 31.1725 48.1112 31.1725H43.5888V34.6081ZM41.8188 19.4042C42.795 19.4042 43.5876 20.1728 43.5876 21.1213V27.7383H48.11C50.4624 27.7131 52.3544 25.8551 52.3544 23.5706C52.3544 21.2861 50.4611 19.4294 48.11 19.4029H41.8188V19.4042Z" fill="white"/>
<path d="M56.6931 34.608L62.783 15.9749V15.9724H66.4965V15.9749L72.5863 34.608H68.8753L67.7532 31.1725H61.5288L60.4054 34.608H56.6944H56.6931ZM64.6385 21.6522L62.6509 27.7244H66.6198L64.6372 21.6522H64.6385Z" fill="white"/>
<g filter="url(#filter0_d_810_62)">
<path d="M107.656 24.528C107.656 26.472 106.144 27.48 104.26 27.48H102.856V30H101.008V21.6H104.44C106.444 21.6 107.656 22.788 107.656 24.504V24.528ZM105.784 24.564V24.54C105.784 23.712 105.208 23.268 104.284 23.268H102.856V25.836H104.32C105.244 25.836 105.784 25.284 105.784 24.564ZM116.284 30H114.124L112.324 27.312H110.872V30H109.024V21.6H112.864C114.844 21.6 116.032 22.644 116.032 24.372V24.396C116.032 25.752 115.3 26.604 114.232 27L116.284 30ZM114.16 24.492V24.468C114.16 23.676 113.608 23.268 112.708 23.268H110.872V25.68H112.744C113.644 25.68 114.16 25.2 114.16 24.492ZM125.88 30H123.948L123.18 28.116H119.628L118.86 30H116.976L120.576 21.54H122.28L125.88 30ZM122.52 26.484L121.404 23.76L120.288 26.484H122.52ZM132.458 23.304H129.902V30H128.054V23.304H125.498V21.6H132.458V23.304ZM140.985 30H139.053L138.285 28.116H134.733L133.965 30H132.081L135.681 21.54H137.385L140.985 30ZM137.625 26.484L136.509 23.76L135.393 26.484H137.625ZM150.681 30H148.845V24.516L146.481 28.104H146.433L144.093 24.552V30H142.281V21.6H144.273L146.481 25.152L148.689 21.6H150.681V30ZM160.883 30H158.951L158.183 28.116H154.631L153.863 30H151.979L155.579 21.54H157.283L160.883 30ZM157.523 26.484L156.407 23.76L155.291 26.484H157.523Z" fill="white"/>
</g>
<g filter="url(#filter1_d_810_62)">
<path d="M108.268 17H106.108L104.308 14.312H102.856V17H101.008V8.6H104.848C106.828 8.6 108.016 9.644 108.016 11.372V11.396C108.016 12.752 107.284 13.604 106.216 14L108.268 17ZM106.144 11.492V11.468C106.144 10.676 105.592 10.268 104.692 10.268H102.856V12.68H104.728C105.628 12.68 106.144 12.2 106.144 11.492ZM116.076 17H109.68V8.6H116.016V10.244H111.516V11.948H115.476V13.592H111.516V15.356H116.076V17ZM125.351 15.812C124.487 16.544 123.299 17.144 121.763 17.144C119.147 17.144 117.347 15.308 117.347 12.824V12.8C117.347 10.412 119.207 8.456 121.751 8.456C123.263 8.456 124.175 8.864 125.051 9.608L123.887 11.012C123.239 10.472 122.663 10.16 121.691 10.16C120.347 10.16 119.279 11.348 119.279 12.776V12.8C119.279 14.336 120.335 15.464 121.823 15.464C122.495 15.464 123.095 15.296 123.563 14.96V13.76H121.703V12.164H125.351V15.812ZM134.761 15.812C133.897 16.544 132.709 17.144 131.173 17.144C128.557 17.144 126.757 15.308 126.757 12.824V12.8C126.757 10.412 128.617 8.456 131.161 8.456C132.673 8.456 133.585 8.864 134.461 9.608L133.297 11.012C132.649 10.472 132.073 10.16 131.101 10.16C129.757 10.16 128.689 11.348 128.689 12.776V12.8C128.689 14.336 129.745 15.464 131.233 15.464C131.905 15.464 132.505 15.296 132.973 14.96V13.76H131.113V12.164H134.761V15.812ZM143.616 8.6L140.388 13.652V17H138.54V13.688L135.312 8.6H137.472L139.476 11.972L141.516 8.6H143.616Z" fill="white"/>
</g>
<g filter="url(#filter2_d_810_62)">
<path d="M109.192 43H107.26L106.492 41.116H102.94L102.172 43H100.288L103.888 34.54H105.592L109.192 43ZM105.832 39.484L104.716 36.76L103.6 39.484H105.832ZM118.228 38.8C118.228 41.164 116.404 43 113.764 43H110.488V34.6H113.764C116.404 34.6 118.228 36.412 118.228 38.776V38.8ZM116.296 38.824V38.8C116.296 37.312 115.276 36.268 113.764 36.268H112.336V41.332H113.764C115.276 41.332 116.296 40.312 116.296 38.824ZM127.04 34.6L123.644 43.06H122.012L118.616 34.6H120.656L122.852 40.516L125.048 34.6H127.04ZM134.732 43H128.336V34.6H134.672V36.244H130.172V37.948H134.132V39.592H130.172V41.356H134.732V43ZM143.635 43H141.475L139.675 40.312H138.223V43H136.375V34.6H140.215C142.195 34.6 143.383 35.644 143.383 37.372V37.396C143.383 38.752 142.651 39.604 141.583 40L143.635 43ZM141.511 37.492V37.468C141.511 36.676 140.959 36.268 140.059 36.268H138.223V38.68H140.095C140.995 38.68 141.511 38.2 141.511 37.492ZM151.407 36.304H148.851V43H147.003V36.304H144.447V34.6H151.407V36.304ZM154.76 43H152.912V34.6H154.76V43ZM162.932 40.516C162.932 42.184 161.66 43.12 159.848 43.12C158.576 43.12 157.292 42.676 156.284 41.776L157.376 40.468C158.132 41.092 158.924 41.488 159.884 41.488C160.64 41.488 161.096 41.188 161.096 40.696V40.672C161.096 40.204 160.808 39.964 159.404 39.604C157.712 39.172 156.62 38.704 156.62 37.036V37.012C156.62 35.488 157.844 34.48 159.56 34.48C160.784 34.48 161.828 34.864 162.68 35.548L161.72 36.94C160.976 36.424 160.244 36.112 159.536 36.112C158.828 36.112 158.456 36.436 158.456 36.844V36.868C158.456 37.42 158.816 37.6 160.268 37.972C161.972 38.416 162.932 39.028 162.932 40.492V40.516ZM166.467 43H164.619V34.6H166.467V43ZM176.031 43H174.459L170.391 37.66V43H168.567V34.6H170.271L174.207 39.772V34.6H176.031V43ZM185.679 41.812C184.815 42.544 183.627 43.144 182.091 43.144C179.475 43.144 177.675 41.308 177.675 38.824V38.8C177.675 36.412 179.535 34.456 182.079 34.456C183.591 34.456 184.503 34.864 185.379 35.608L184.215 37.012C183.567 36.472 182.991 36.16 182.019 36.16C180.675 36.16 179.607 37.348 179.607 38.776V38.8C179.607 40.336 180.663 41.464 182.151 41.464C182.823 41.464 183.423 41.296 183.891 40.96V39.76H182.031V38.164H185.679V41.812Z" fill="white"/>
</g>
<defs>
<filter id="filter0_d_810_62" x="99.008" y="19.54" width="67.8754" height="16.46" filterUnits="userSpaceOnUse" color-interpolation-filters="sRGB">
<feFlood flood-opacity="0" result="BackgroundImageFix"/>
<feColorMatrix in="SourceAlpha" type="matrix" values="0 0 0 0 0 0 0 0 0 0 0 0 0 0 0 0 0 0 127 0" result="hardAlpha"/>
<feOffset dx="2" dy="2"/>
<feGaussianBlur stdDeviation="2"/>
<feComposite in2="hardAlpha" operator="out"/>
<feColorMatrix type="matrix" values="0 0 0 0 0 0 0 0 0 0 0 0 0 0 0 0 0 0 0.25 0"/>
<feBlend mode="normal" in2="BackgroundImageFix" result="effect1_dropShadow_810_62"/>
<feBlend mode="normal" in="SourceGraphic" in2="effect1_dropShadow_810_62" result="shape"/>
</filter>
<filter id="filter1_d_810_62" x="99.008" y="6.45605" width="50.608" height="16.688" filterUnits="userSpaceOnUse" color-interpolation-filters="sRGB">
<feFlood flood-opacity="0" result="BackgroundImageFix"/>
<feColorMatrix in="SourceAlpha" type="matrix" values="0 0 0 0 0 0 0 0 0 0 0 0 0 0 0 0 0 0 127 0" result="hardAlpha"/>
<feOffset dx="2" dy="2"/>
<feGaussianBlur stdDeviation="2"/>
<feComposite in2="hardAlpha" operator="out"/>
<feColorMatrix type="matrix" values="0 0 0 0 0 0 0 0 0 0 0 0 0 0 0 0 0 0 0.25 0"/>
<feBlend mode="normal" in2="BackgroundImageFix" result="effect1_dropShadow_810_62"/>
<feBlend mode="normal" in="SourceGraphic" in2="effect1_dropShadow_810_62" result="shape"/>
</filter>
<filter id="filter2_d_810_62" x="98.288" y="32.4561" width="93.391" height="16.688" filterUnits="userSpaceOnUse" color-interpolation-filters="sRGB">
<feFlood flood-opacity="0" result="BackgroundImageFix"/>
<feColorMatrix in="SourceAlpha" type="matrix" values="0 0 0 0 0 0 0 0 0 0 0 0 0 0 0 0 0 0 127 0" result="hardAlpha"/>
<feOffset dx="2" dy="2"/>
<feGaussianBlur stdDeviation="2"/>
<feComposite in2="hardAlpha" operator="out"/>
<feColorMatrix type="matrix" values="0 0 0 0 0 0 0 0 0 0 0 0 0 0 0 0 0 0 0.25 0"/>
<feBlend mode="normal" in2="BackgroundImageFix" result="effect1_dropShadow_810_62"/>
<feBlend mode="normal" in="SourceGraphic" in2="effect1_dropShadow_810_62" result="shape"/>
</filter>
</defs>
</svg>
